<svg id="Layer_1" data-name="Layer 1" xmlns="http://www.w3.org/2000/svg" viewBox="0 0 1500.15 337.17"><defs><style>.cls-1{fill:#16a345;}.cls-2{fill:#4148c4;}.cls-3{fill:#414ece;}</style></defs><path class="cls-1" d="M321.35,268.15V248.78l-44.91,44.9,69.91.72v63a11.72,11.72,0,0,1-11.72,11.72h-77.1v-25h63.82v-25l-104.64-1.07,27.53-27.54,23.6-23.6,66.79-66.79h0a11.72,11.72,0,0,1,11.72,11.72v56.56Z" transform="translate(-165.5 -95.91)"/><path class="cls-1" d="M237.64,268.15V248.78l44.91,44.9-69.91.72v63a11.72,11.72,0,0,0,11.72,11.72h77.1v-25H237.64v-25l104.64-1.07-27.53-27.54-23.6-23.6-66.79-66.79h0a11.71,11.71,0,0,0-11.72,11.72v56.56Z" transform="translate(-165.5 -95.91)"/><path class="cls-2" d="M393.5,361.07,360.93,328.5V192.43H198.07V260.3H165.5V175.77a15.91,15.91,0,0,1,15.91-15.91H377.59a15.91,15.91,0,0,1,15.91,15.91Z" transform="translate(-165.5 -95.91)"/><path class="cls-2" d="M165.5,361.07l32.57-32.57V192.43H360.93V260.3H393.5V175.77a15.91,15.91,0,0,0-15.91-15.91H181.41a15.91,15.91,0,0,0-15.91,15.91Z" transform="translate(-165.5 -95.91)"/><polygon class="cls-2" points="111.51 152.68 87.91 129.08 88.06 108.65 111.82 108.65 111.52 150.83 111.51 152.68"/><polygon class="cls-2" points="116.34 152.68 139.94 129.08 139.79 108.65 116.03 108.65 116.33 150.83 116.34 152.68"/><path class="cls-1" d="M936.2,260.08V240.71l-44.91,44.9,69.91.72v63a11.72,11.72,0,0,1-11.72,11.72h-77.1v-25H936.2v-25L831.56,310l27.53-27.54,23.6-23.6,66.79-66.79h0a11.72,11.72,0,0,1,11.72,11.72v56.56Z" transform="translate(-165.5 -95.91)"/><path class="cls-2" d="M941,192.57l-24,24H816.7v120h50v24H804.42a11.72,11.72,0,0,1-11.72-11.72V204.3a11.73,11.73,0,0,1,11.72-11.73Z" transform="translate(-165.5 -95.91)"/><polygon class="cls-2" points="709.23 162.89 685.63 186.49 665.2 186.34 665.2 162.58 707.38 162.88 709.23 162.89"/><line class="cls-2" x1="1228.17" y1="186.38" x2="1228.17" y2="132.52"/><path class="cls-1" d="M1641.85,95.91H1498.41v49.88h80.37L1393.37,331.2l208.79,2.15v49.86H1498.41v49.88h129.88A23.76,23.76,0,0,0,1652,409.33V284l-139.48-1.45,146.09-146.08C1673.61,121.5,1663,95.91,1641.85,95.91Z" transform="translate(-165.5 -95.91)"/><path class="cls-3" d="M1365.74,384.21h111.71v47.88H1341.6a23.74,23.74,0,0,1-23.74-23.75V120.66a23.74,23.74,0,0,1,23.74-23.75h135.87v47.88H1365.74Z" transform="translate(-165.5 -95.91)"/><polyline class="cls-3" points="1228.17 186.38 1246.59 186.58 1299.89 133.27 1228.17 132.52"/></svg>